<svg width="160" height="27" fill="none" xmlns="http://www.w3.org/2000/svg"><path d="M12.189 17.913H3.804v8.501H0V6.301h3.804v8.241h8.385V6.301h3.803v20.113H12.19v-8.5zm7.686 8.501v-3.055h2.651V9.356h-2.65V6.301h9.134v3.054h-2.68V23.36h2.68v3.054h-9.135zm16.825 0h-3.804V6.301h9.076c.922 0 1.748.144 2.478.432a4.8 4.8 0 011.845 1.268 5.302 5.302 0 011.181 1.96c.288.768.432 1.623.432 2.564 0 1.383-.317 2.574-.95 3.573-.615.999-1.547 1.71-2.796 2.132l4.12 8.184h-4.235l-3.746-7.751H36.7v7.751zm4.898-10.95c.73 0 1.306-.192 1.729-.576.422-.404.634-.97.634-1.7v-1.326c0-.73-.212-1.287-.634-1.671-.423-.384-1-.576-1.73-.576H36.7v5.85h4.899zm10.432 10.95V6.301h13.256v3.371h-9.452v4.87h8.357v3.371h-8.357v5.13h9.452v3.371H52.03zm18.846-3.602h3.602v3.602h-3.602z" fill="#000"/><path fill-rule="evenodd" clip-rule="evenodd" d="M147.638 26.097c1.076.442 2.277.663 3.602.663 1.326 0 2.526-.221 3.602-.663a7.284 7.284 0 002.766-1.988c.769-.884 1.355-1.97 1.758-3.256.423-1.287.634-2.786.634-4.495 0-1.691-.211-3.18-.634-4.467-.403-1.306-.989-2.401-1.758-3.285a7.283 7.283 0 00-2.766-1.988c-1.076-.442-2.276-.663-3.602-.663-1.325 0-2.526.221-3.602.663a7.283 7.283 0 00-2.766 1.988c-.749.884-1.335 1.979-1.758 3.285-.422 1.287-.634 2.776-.634 4.467 0 1.71.212 3.208.634 4.495.423 1.287 1.009 2.372 1.758 3.256a7.284 7.284 0 002.766 1.988zm7.031-4.15c-.845.961-1.988 1.441-3.429 1.441-1.441 0-2.593-.48-3.458-1.44-.845-.96-1.268-2.306-1.268-4.035v-3.111c0-1.73.423-3.074 1.268-4.035.865-.96 2.017-1.44 3.458-1.44 1.441 0 2.584.48 3.429 1.44.865.96 1.297 2.306 1.297 4.035v3.111c0 1.73-.432 3.074-1.297 4.035zm-74.36 4.467l-6.57-20.113h3.89l3.083 9.797 1.786 6.685h.087l1.757-6.685 3.084-9.797H91.2l-6.57 20.113h-4.322zm12.87 0V23.36h2.652V9.355H93.18V6.301h9.134v3.054h-2.68V23.36h2.68v3.054H93.18zM109.86 6.301h-3.66v20.113h7.319c1.306 0 2.488-.211 3.544-.634a7.184 7.184 0 002.738-1.873c.768-.845 1.354-1.892 1.758-3.14.384-1.153.593-2.472.628-3.958h-9.69a2 2 0 01-2-2v-2.003a2 2 0 012-2h8.608a7.534 7.534 0 00-1.304-1.97 7.042 7.042 0 00-2.738-1.901c-1.056-.423-2.238-.634-3.544-.634h-3.659zm16.207 0h13.255v3.371h-9.452v4.87h8.357v3.371h-8.357v5.13h9.452v3.371h-13.255V6.301z" fill="#000"/><circle cx="111.698" cy="2.401" r="1.901" fill="#fff" stroke="#000"/><path d="M111.698 3.602v6.003" stroke="#000"/></svg>