<svg width="146" height="25" viewBox="0 0 146 25" fill="none" xmlns="http://www.w3.org/2000/svg">
<path d="M11.1223 16.346H3.4708V24.1027H0V5.74951H3.4708V13.2696H11.1223V5.74951H14.5931V24.1027H11.1223V16.346Z" fill="white"/>
<path d="M18.1362 24.1027V21.3155H20.5553V8.53667H18.1362V5.74951H26.4714V8.53667H24.0261V21.3155H26.4714V24.1027H18.1362Z" fill="white"/>
<path d="M33.488 24.1027H30.0172V5.74951H38.2998C39.1412 5.74951 39.895 5.88098 40.5611 6.14392C41.2272 6.40686 41.7881 6.7925 42.2439 7.30085C42.7172 7.79167 43.0765 8.38767 43.3219 9.08884C43.5849 9.79001 43.7163 10.5701 43.7163 11.429C43.7163 12.6911 43.4271 13.7779 42.8486 14.6895C42.2877 15.601 41.4375 16.2496 40.2981 16.6352L44.0582 24.1027H40.193L36.7747 17.0296H33.488V24.1027ZM37.958 14.111C38.6241 14.111 39.15 13.9357 39.5356 13.5851C39.9213 13.217 40.1141 12.6999 40.1141 12.0338V10.8242C40.1141 10.1581 39.9213 9.64978 39.5356 9.29919C39.15 8.94861 38.6241 8.77332 37.958 8.77332H33.488V14.111H37.958Z" fill="white"/>
<path d="M47.478 24.1027V5.74951H59.5732V8.8259H50.9488V13.2696H58.5741V16.346H50.9488V21.0263H59.5732V24.1027H47.478Z" fill="white"/>
<rect x="64.6743" y="20.8159" width="3.28674" height="3.28674" fill="white"/>
<path fill-rule="evenodd" clip-rule="evenodd" d="M134.72 23.8135C135.702 24.2167 136.797 24.4183 138.007 24.4183C139.216 24.4183 140.312 24.2167 141.293 23.8135C142.275 23.4104 143.116 22.8056 143.818 21.9993C144.519 21.1929 145.053 20.2025 145.422 19.0281C145.807 17.8536 146 16.4863 146 14.9262C146 13.3836 145.807 12.0251 145.422 10.8506C145.053 9.65864 144.519 8.65947 143.818 7.85312C143.116 7.04678 142.275 6.44202 141.293 6.03884C140.312 5.63567 139.216 5.43408 138.007 5.43408C136.797 5.43408 135.702 5.63567 134.72 6.03884C133.738 6.44202 132.897 7.04678 132.196 7.85312C131.512 8.65947 130.977 9.65864 130.592 10.8506C130.206 12.0251 130.013 13.3836 130.013 14.9262C130.013 16.4863 130.206 17.8536 130.592 19.0281C130.977 20.2025 131.512 21.1929 132.196 21.9993C132.897 22.8056 133.738 23.4104 134.72 23.8135ZM141.136 20.0272C140.364 20.9037 139.321 21.3419 138.007 21.3419C136.692 21.3419 135.64 20.9037 134.851 20.0272C134.08 19.1508 133.694 17.9237 133.694 16.3461V13.5063C133.694 11.9287 134.08 10.7016 134.851 9.82517C135.64 8.94871 136.692 8.51047 138.007 8.51047C139.321 8.51047 140.364 8.94871 141.136 9.82517C141.924 10.7016 142.319 11.9287 142.319 13.5063V16.3461C142.319 17.9237 141.924 19.1508 141.136 20.0272ZM73.2813 24.1028L67.2863 5.74961H70.8359L73.6494 14.6896L75.2796 20.7897H75.3585L76.9624 14.6896L79.7759 5.74961H83.2204L77.2254 24.1028H73.2813ZM85.0267 24.1028V21.3156H87.4457V8.53677H85.0267V5.74961H93.3618V8.53677H90.9165V21.3156H93.3618V24.1028H85.0267ZM100.247 5.74961H96.9076V24.1028H103.586C104.778 24.1028 105.856 23.91 106.82 23.5243C107.802 23.1387 108.635 22.569 109.318 21.8152C110.02 21.0439 110.554 20.0886 110.922 18.9492C111.273 17.8975 111.464 16.6938 111.496 15.3381H102.828C101.724 15.3381 100.828 14.4426 100.828 13.3381V11.8602C100.828 10.7556 101.724 9.86017 102.828 9.86017H110.508C110.187 9.16988 109.79 8.57099 109.318 8.06348C108.635 7.29219 107.802 6.71372 106.82 6.32808C105.856 5.94243 104.778 5.74961 103.586 5.74961H100.247ZM115.036 5.74961H127.131V8.826H118.507V13.2697H126.132V16.3461H118.507V21.0264H127.131V24.1028H115.036V5.74961Z" fill="white"/>
<circle cx="101.924" cy="2.19116" r="1.69116" fill="white" stroke="white"/>
<path d="M101.924 3.28674L101.924 8.76465" stroke="white"/>
</svg>
