<svg width="150" height="19" viewBox="0 0 150 19" fill="none" xmlns="http://www.w3.org/2000/svg"><path d="M15.365 11.41c0 1.085-.16 2.056-.478 2.912a5.718 5.718 0 0 1-1.409 2.174c-.62.593-1.385 1.044-2.296 1.354-.912.31-1.96.464-3.145.464-1.112 0-2.11-.136-2.994-.41-.884-.282-1.632-.706-2.242-1.271-.61-.565-1.08-1.267-1.408-2.106-.32-.847-.479-1.836-.479-2.966V.8A.4.4 0 0 1 .996.555a.576.576 0 0 1 .287-.178 3.21 3.21 0 0 1 .56-.11 7.6 7.6 0 0 1 .876-.04c.346 0 .633.013.861.04.228.028.41.064.547.11a.576.576 0 0 1 .287.178A.364.364 0 0 1 4.51.8v10.445c0 .702.086 1.313.26 1.832.173.51.419.934.738 1.272a3.23 3.23 0 0 0 1.162.765 4.46 4.46 0 0 0 1.518.246c.565 0 1.07-.086 1.517-.26a3.056 3.056 0 0 0 1.135-.751c.31-.338.547-.748.71-1.23.174-.493.26-1.049.26-1.669V.801a.4.4 0 0 1 .083-.246.576.576 0 0 1 .287-.178c.136-.046.319-.082.547-.11.236-.027.528-.04.875-.04.346 0 .628.013.847.04.228.028.41.064.547.11a.576.576 0 0 1 .287.178.4.4 0 0 1 .082.246v10.61zm15.342 5.182c0 .264-.014.487-.041.67-.018.173-.05.314-.096.424a.574.574 0 0 1-.177.246.367.367 0 0 1-.22.068h-8.886c-.3 0-.556-.087-.765-.26-.201-.182-.301-.474-.301-.875V1.443c0-.4.1-.688.3-.861.21-.182.465-.273.766-.273h8.832c.082 0 .155.022.219.068a.527.527 0 0 1 .164.246c.046.11.077.255.096.438.027.173.04.396.04.67 0 .255-.013.473-.04.656-.019.173-.05.314-.096.424a.645.645 0 0 1-.164.246.367.367 0 0 1-.219.068h-6.316v4.32h5.345c.082 0 .155.028.22.082a.48.48 0 0 1 .177.233c.045.1.077.241.096.424.027.173.04.387.04.642 0 .264-.013.483-.04.656a1.54 1.54 0 0 1-.096.424.484.484 0 0 1-.178.219.367.367 0 0 1-.219.068h-5.345v4.99h6.37c.083 0 .156.028.22.083a.48.48 0 0 1 .177.232c.046.11.078.255.096.438.027.173.041.392.041.656zM44.818 1.785c0 .274-.013.506-.04.697a1.274 1.274 0 0 1-.11.438.645.645 0 0 1-.164.246.327.327 0 0 1-.219.082h-5.783v4.758h5.428c.082 0 .155.023.218.068a.526.526 0 0 1 .164.233c.055.109.092.255.11.437.027.182.04.41.04.684 0 .273-.013.501-.04.683a1.424 1.424 0 0 1-.11.451.638.638 0 0 1-.164.26.367.367 0 0 1-.218.069h-5.428v6.59a.42.42 0 0 1-.082.26c-.055.072-.155.136-.3.19a2.862 2.862 0 0 1-.548.11 7.59 7.59 0 0 1-.875.041 7.81 7.81 0 0 1-.875-.041 2.862 2.862 0 0 1-.547-.11.777.777 0 0 1-.3-.19.42.42 0 0 1-.082-.26V1.442c0-.4.1-.688.3-.861.21-.182.465-.273.766-.273h8.326c.082 0 .155.027.219.082a.527.527 0 0 1 .164.246c.055.11.091.26.11.45.027.192.04.425.04.698zM61.65 16.66c.11.328.178.588.206.78.027.19-.01.337-.11.437-.1.091-.278.146-.533.164-.255.027-.606.041-1.053.041-.465 0-.83-.01-1.094-.027a2.802 2.802 0 0 1-.588-.069.576.576 0 0 1-.287-.177.934.934 0 0 1-.136-.288l-1.19-3.554h-6.644L49.1 17.426a1.088 1.088 0 0 1-.15.328.6.6 0 0 1-.288.205 2.254 2.254 0 0 1-.56.096c-.237.018-.552.027-.944.027-.42 0-.747-.014-.984-.041-.237-.027-.401-.091-.492-.191-.092-.11-.123-.26-.096-.452.027-.191.096-.446.205-.765L51.246.938c.055-.155.119-.278.191-.37A.622.622 0 0 1 51.78.35c.164-.055.388-.087.67-.096.283-.018.657-.027 1.121-.027.538 0 .966.009 1.285.027.32.009.566.04.739.096.182.045.31.118.383.218.082.1.15.237.205.41L61.65 16.66zM53.53 3.686h-.014l-2.502 7.52h5.017l-2.502-7.52z" fill="#fff"/><path d="M84.719 15.32c0 .228-.01.424-.028.588a2.48 2.48 0 0 1-.054.41c-.028.11-.064.205-.11.287a1.593 1.593 0 0 1-.218.288c-.1.1-.297.232-.588.396a6.853 6.853 0 0 1-1.053.479 9.608 9.608 0 0 1-3.145.519c-1.212 0-2.306-.187-3.28-.56a6.516 6.516 0 0 1-2.49-1.668c-.683-.748-1.207-1.678-1.571-2.79-.365-1.111-.547-2.406-.547-3.882 0-1.504.2-2.84.601-4.006.401-1.167.962-2.147 1.682-2.94A7.05 7.05 0 0 1 76.502.637C77.514.227 78.626.02 79.838.02a8.015 8.015 0 0 1 2.68.452 5.9 5.9 0 0 1 1.052.45c.31.174.524.324.643.452.128.118.214.219.26.3.045.083.082.188.109.315a2.9 2.9 0 0 1 .055.451c.018.174.027.388.027.643 0 .273-.01.506-.027.697-.019.192-.05.347-.096.465a.638.638 0 0 1-.164.26.327.327 0 0 1-.219.082c-.136 0-.31-.078-.52-.233a6.801 6.801 0 0 0-.82-.533 5.806 5.806 0 0 0-1.19-.533c-.455-.164-1.002-.246-1.64-.246-.701 0-1.33.146-1.886.437a4.016 4.016 0 0 0-1.409 1.23c-.382.53-.674 1.172-.875 1.929-.2.756-.3 1.608-.3 2.556 0 1.04.104 1.942.314 2.707.219.757.524 1.381.916 1.873.401.493.88.862 1.436 1.108.565.237 1.198.355 1.9.355.638 0 1.19-.073 1.654-.218a7.058 7.058 0 0 0 1.19-.506c.337-.183.61-.347.82-.492.219-.146.387-.22.506-.22a.39.39 0 0 1 .219.055c.054.037.1.11.136.22.037.108.064.264.082.464.019.191.028.451.028.78zm17.392 2.188a.367.367 0 0 1-.095.246.58.58 0 0 1-.287.178 2.867 2.867 0 0 1-.547.109 7.445 7.445 0 0 1-.862.041c-.355 0-.651-.014-.888-.041a2.862 2.862 0 0 1-.547-.11.674.674 0 0 1-.287-.177.4.4 0 0 1-.082-.246v-7.15h-6.618v7.15a.4.4 0 0 1-.082.246.576.576 0 0 1-.287.178 2.862 2.862 0 0 1-.547.109c-.227.027-.52.041-.875.041-.346 0-.638-.014-.875-.041a2.865 2.865 0 0 1-.546-.11.674.674 0 0 1-.301-.177.4.4 0 0 1-.082-.246V.8a.4.4 0 0 1 .082-.246.675.675 0 0 1 .3-.178c.137-.046.32-.082.547-.11.237-.027.53-.04.875-.04.356 0 .648.013.875.04.228.028.41.064.547.11a.576.576 0 0 1 .287.178.4.4 0 0 1 .082.246v6.494h6.618V.8a.4.4 0 0 1 .082-.246.674.674 0 0 1 .287-.178c.136-.046.319-.082.547-.11.237-.027.533-.04.888-.04.347 0 .634.013.862.04.228.028.41.064.547.11a.58.58 0 0 1 .287.178.367.367 0 0 1 .095.246v16.707zm8.465 0a.363.363 0 0 1-.096.246c-.054.073-.15.132-.287.178a2.85 2.85 0 0 1-.547.109 7.571 7.571 0 0 1-.875.041c-.346 0-.638-.014-.875-.041a2.854 2.854 0 0 1-.546-.11.675.675 0 0 1-.301-.177.398.398 0 0 1-.082-.246V.8c0-.091.027-.173.082-.246a.676.676 0 0 1 .301-.178c.145-.046.332-.082.56-.11a7.45 7.45 0 0 1 .861-.04c.356 0 .648.013.875.04.228.028.411.064.547.11.137.046.233.105.287.178a.363.363 0 0 1 .096.246v16.707zm19.444-.766c0 .21-.037.397-.11.56a1.119 1.119 0 0 1-.301.41c-.118.11-.264.192-.437.247a1.882 1.882 0 0 1-.506.068h-1.531a3.23 3.23 0 0 1-.834-.095 1.764 1.764 0 0 1-.643-.342 3.408 3.408 0 0 1-.56-.684 13.653 13.653 0 0 1-.616-1.12l-4.402-8.272a43.201 43.201 0 0 1-.779-1.586 29.433 29.433 0 0 1-.711-1.668h-.028a71.972 71.972 0 0 1 .11 3.978v9.256a.398.398 0 0 1-.082.246.551.551 0 0 1-.26.192 2.209 2.209 0 0 1-.492.109c-.21.027-.479.041-.807.041-.319 0-.583-.014-.793-.041a2.236 2.236 0 0 1-.492-.11.556.556 0 0 1-.246-.19.45.45 0 0 1-.068-.247v-15.9c0-.429.123-.748.369-.957.255-.219.565-.328.929-.328h1.928c.347 0 .638.031.875.095.237.055.447.15.629.287.192.137.369.329.533.575.164.237.333.533.506.888l3.445 6.467c.201.392.397.78.588 1.162.201.374.392.752.575 1.135.182.374.36.743.533 1.107.173.365.342.73.506 1.094h.013c-.027-.638-.05-1.303-.068-1.996-.009-.693-.014-1.353-.014-1.982V.84c0-.09.028-.172.082-.245a.659.659 0 0 1 .274-.192c.127-.054.296-.09.506-.11.209-.026.478-.04.806-.04.31 0 .57.014.78.04.209.02.369.056.478.11a.546.546 0 0 1 .246.192.452.452 0 0 1 .069.246v15.9zm19.361-.082c.109.328.178.588.205.78.027.19-.009.337-.109.437-.101.091-.278.146-.534.164-.255.027-.606.041-1.052.041-.465 0-.83-.01-1.094-.027a2.808 2.808 0 0 1-.588-.069.576.576 0 0 1-.287-.177.941.941 0 0 1-.137-.288l-1.189-3.554h-6.645l-1.121 3.459a1.097 1.097 0 0 1-.15.328.605.605 0 0 1-.287.205 2.263 2.263 0 0 1-.561.096c-.237.018-.551.027-.943.027a9.09 9.09 0 0 1-.985-.041c-.237-.027-.401-.091-.492-.191-.091-.11-.123-.26-.096-.452.028-.191.096-.446.205-.765L138.977.938c.054-.155.118-.278.191-.37a.623.623 0 0 1 .342-.218 2.44 2.44 0 0 1 .67-.096c.282-.018.656-.027 1.121-.027.538 0 .966.009 1.285.027.319.009.565.04.738.096.183.045.31.118.383.218.082.1.15.237.205.41l5.469 15.682zM141.26 3.686h-.014l-2.502 7.52h5.018l-2.502-7.52z" fill="#989898"/></svg>