<svg width="65" height="19" viewBox="0 0 65 19" fill="none" xmlns="http://www.w3.org/2000/svg"><path d="M15.365 11.41c0 1.085-.16 2.056-.478 2.912a5.718 5.718 0 0 1-1.409 2.174c-.62.593-1.385 1.044-2.296 1.354-.912.31-1.96.464-3.145.464-1.112 0-2.11-.136-2.994-.41-.884-.282-1.632-.706-2.242-1.271-.61-.565-1.08-1.267-1.408-2.106-.32-.847-.479-1.836-.479-2.966V.8A.4.4 0 0 1 .996.555a.576.576 0 0 1 .287-.178 3.21 3.21 0 0 1 .56-.11 7.6 7.6 0 0 1 .876-.04c.346 0 .633.013.861.04.228.028.41.064.547.11a.576.576 0 0 1 .287.178A.364.364 0 0 1 4.51.8v10.445c0 .702.086 1.313.26 1.832.173.51.419.934.738 1.272a3.23 3.23 0 0 0 1.162.765 4.46 4.46 0 0 0 1.518.246c.565 0 1.07-.086 1.517-.26a3.056 3.056 0 0 0 1.135-.751c.31-.338.547-.748.71-1.23.174-.493.26-1.049.26-1.669V.801a.4.4 0 0 1 .083-.246.576.576 0 0 1 .287-.178c.136-.046.319-.082.547-.11.236-.027.528-.04.875-.04.346 0 .628.013.847.04.228.028.41.064.547.11a.576.576 0 0 1 .287.178.4.4 0 0 1 .082.246v10.61zm15.342 5.182c0 .264-.014.487-.041.67-.018.173-.05.314-.096.424a.574.574 0 0 1-.177.246.367.367 0 0 1-.22.068h-8.886c-.3 0-.556-.087-.765-.26-.201-.182-.301-.474-.301-.875V1.443c0-.4.1-.688.3-.861.21-.182.465-.273.766-.273h8.832c.082 0 .155.022.219.068a.527.527 0 0 1 .164.246c.046.11.077.255.096.438.027.173.04.396.04.67 0 .255-.013.473-.04.656-.019.173-.05.314-.096.424a.645.645 0 0 1-.164.246.367.367 0 0 1-.219.068h-6.316v4.32h5.345c.082 0 .155.028.22.082a.48.48 0 0 1 .177.233c.045.1.077.241.096.424.027.173.04.387.04.642 0 .264-.013.483-.04.656a1.54 1.54 0 0 1-.096.424.484.484 0 0 1-.178.219.367.367 0 0 1-.219.068h-5.345v4.99h6.37c.083 0 .156.028.22.083a.48.48 0 0 1 .177.232c.046.11.078.255.096.438.027.173.041.392.041.656zM44.818 1.785c0 .274-.013.506-.04.697a1.274 1.274 0 0 1-.11.438.645.645 0 0 1-.164.246.327.327 0 0 1-.219.082h-5.783v4.758h5.428c.082 0 .155.023.218.068a.526.526 0 0 1 .164.233c.055.109.092.255.11.437.027.182.04.41.04.684 0 .273-.013.501-.04.683a1.424 1.424 0 0 1-.11.451.638.638 0 0 1-.164.26.367.367 0 0 1-.218.069h-5.428v6.59a.42.42 0 0 1-.082.26c-.055.072-.155.136-.3.19a2.862 2.862 0 0 1-.548.11 7.59 7.59 0 0 1-.875.041 7.81 7.81 0 0 1-.875-.041 2.862 2.862 0 0 1-.547-.11.777.777 0 0 1-.3-.19.42.42 0 0 1-.082-.26V1.442c0-.4.1-.688.3-.861.21-.182.465-.273.766-.273h8.326c.082 0 .155.027.219.082a.527.527 0 0 1 .164.246c.055.11.091.26.11.45.027.192.04.425.04.698zM61.65 16.66c.11.328.178.588.206.78.027.19-.01.337-.11.437-.1.091-.278.146-.533.164-.255.027-.606.041-1.053.041-.465 0-.83-.01-1.094-.027a2.802 2.802 0 0 1-.588-.069.576.576 0 0 1-.287-.177.934.934 0 0 1-.136-.288l-1.19-3.554h-6.644L49.1 17.426a1.088 1.088 0 0 1-.15.328.6.6 0 0 1-.288.205 2.254 2.254 0 0 1-.56.096c-.237.018-.552.027-.944.027-.42 0-.747-.014-.984-.041-.237-.027-.401-.091-.492-.191-.092-.11-.123-.26-.096-.452.027-.191.096-.446.205-.765L51.246.938c.055-.155.119-.278.191-.37A.622.622 0 0 1 51.78.35c.164-.055.388-.087.67-.096.283-.018.657-.027 1.121-.027.538 0 .966.009 1.285.027.32.009.566.04.739.096.182.045.31.118.383.218.082.1.15.237.205.41L61.65 16.66zM53.53 3.686h-.014l-2.502 7.52h5.017l-2.502-7.52z" fill="#fff"/></svg>