<svg width="32" height="32" viewBox="0 0 32 32" fill="none" xmlns="http://www.w3.org/2000/svg"><path d="M32 0H0v32h32V0z" fill="#fff" fill-opacity=".01"/><path d="M5.333 26.667h21.334V16H5.333v10.667z" fill="#E7EBFF"/><path d="M26.666 26.667V16H5.334v10.667m21.334 0H5.332h21.334zm0 0h-24 24zm0 0h2.666-2.666z" stroke="#0D3AFF" stroke-width="2" stroke-linecap="round" stroke-linejoin="round"/><path d="M26.667 22.667 24 21.333l-2.666 1.334-2.667-1.334L16 22.667l-2.666-1.334-2.667 1.334L8 21.333l-2.667 1.334M21.334 16v-6M16 16v-6m-5.334 6v-6m10.668-3.333V5.333M16 6.667V5.333m-5.334 1.334V5.333M5.333 16v10.667M26.666 16v10.667" stroke="#0D3AFF" stroke-width="2" stroke-linecap="round" stroke-linejoin="round"/></svg>