<svg width="39" height="35" viewBox="0 0 39 35" fill="none" xmlns="http://www.w3.org/2000/svg"><g clip-path="url(#a)"><path d="M38.763 9.043H13.141v25.623h25.622V9.043z" fill="#fff" fill-opacity=".01"/><path d="M31.506 15.863a5.605 5.605 0 1 0-7.926 7.927 5.605 5.605 0 0 0 7.926-7.927z" fill="#E7EBFF" stroke="#0D3AFF" stroke-width="2" stroke-linejoin="round"/><path d="m22.997 24.81-6.794 6.794m7.172-.378-6.794-6.794" stroke="#0D3AFF" stroke-width="2" stroke-linecap="round" stroke-linejoin="round"/></g><g clip-path="url(#b)"><path d="M25.623 0H0v25.623h25.623V0z" fill="#fff" fill-opacity=".01"/><path d="M22.394 8.033V3.229H17.59" stroke="#0D3AFF" stroke-width="2" stroke-linecap="round" stroke-linejoin="round"/><path d="M8.214 18.697a5.605 5.605 0 1 0 7.927-7.927 5.605 5.605 0 0 0-7.927 7.927z" fill="#E7EBFF" stroke="#0D3AFF" stroke-width="2" stroke-linejoin="round"/><path d="m16.014 9.608 5.312-5.312" stroke="#0D3AFF" stroke-width="2" stroke-linecap="round" stroke-linejoin="round"/></g><defs><clipPath id="a"><path fill="#fff" transform="translate(13.14 9.043)" d="M0 0h25.623v25.623H0z"/></clipPath><clipPath id="b"><path fill="#fff" d="M0 0h25.623v25.623H0z"/></clipPath></defs></svg>