<svg class="icon" viewBox="0 0 1024 1024" xmlns="http://www.w3.org/2000/svg" width="16" height="16"><path d="M20.48 40.96h983.04V1024H20.48z" fill="none"/><path d="M712.09 726.098a30.72 30.72 0 0 1 39.792-17.429C825.364 737.341 870.4 778.957 870.4 830.587c0 97.75-166.298 162.693-368.64 162.693s-368.64-64.942-368.64-162.693c0-51.63 45.056-93.225 118.518-121.918a30.72 30.72 0 0 1 22.343 57.222c-52.428 20.48-79.421 45.404-79.421 64.716 0 48.026 136.274 101.233 307.2 101.233s307.2-53.207 307.2-101.253c0-19.292-26.972-44.216-79.421-64.696a30.72 30.72 0 0 1-17.45-39.793z" fill="#0d3aff"/><path d="m279.839 222.761-3.543 3.482-3.482 3.543C156.53 349.942 159.683 541.614 279.84 657.879l160.83 155.648a87.86 87.86 0 0 0 122.183 0l160.83-155.648a324.54 324.54 0 0 0 7.024-7.025c116.285-120.156 113.131-311.828-7.025-428.093-123.72-119.747-320.102-119.747-443.842 0zm42.721 44.155c99.901-96.686 258.499-96.686 358.4 0 95.764 92.672 98.284 245.453 5.591 341.217l-2.765 2.826-163.635 158.413a26.42 26.42 0 0 1-36.762 0L322.56 613.724c-95.764-92.672-98.284-245.453-5.591-341.217l5.591-5.591z" fill="#0d3aff"/><path d="M501.76 307.2a143.36 143.36 0 1 0 0 286.72 143.36 143.36 0 0 0 0-286.72zm0 61.44a81.92 81.92 0 1 1 0 163.84 81.92 81.92 0 0 1 0-163.84z" fill="#0d3aff"/></svg>