<svg class="icon" viewBox="0 0 1024 1024" xmlns="http://www.w3.org/2000/svg" width="16" height="16"><path d="M588.85 947.06a76.94 76.94 0 1 0 153.879 0 76.94 76.94 0 1 0-153.88 0zM514.883 75.228a75.228 75.228 0 1 0 150.456 0 75.228 75.228 0 1 0-150.456 0zm-41.713 75.228 192.259 62.705c24.595 10.9 40.992 26.667 41.983 51.713l3.424 107.391c.18 5.406 6.126 8.74 10.811 5.947l105.319-61.624c22.253-7.568 56.759 21.982 38.56 50.812L684.799 477.494c-26.938 5.316-45.948-12.523-46.128-38.56l2.793-114.778c-1.441-10.902-14.865-10.631-19.73-1.892L313.254 995.8c-37.298 48.92-90.724 10.45-79.012-34.776l188.115-405.42c10.721-31.893-18.83-30.091-27.929-12.253L291.542 760.657c-28.83 25.677-92.616 4.685-77.12-41.352l213.521-469.386c10.36-17.478-5.135-32.524-23.514-25.407l-308.48 78.922c-29.46 8.74-60.813-41.353-16.036-63.065l314.155-81.805c20.361-6.396 56.488-13.784 79.102-8.108z" fill="#0d3aff"/></svg>